<mxfile host="Electron" modified="2024-12-16T04:57:51.580Z" agent="Mozilla/5.0 (X11; Linux x86_64) AppleWebKit/537.36 (KHTML, like Gecko) draw.io/24.5.3 Chrome/124.0.6367.207 Electron/30.0.6 Safari/537.36" etag="8P5e7P-bAtpgI3XocFU7" version="24.5.3" type="device">
  <diagram name="第 1 页" id="drcVxP9URwkXYzB3A1Lv">
    <mxGraphModel dx="691" dy="410" grid="1" gridSize="10" guides="1" tooltips="1" connect="1" arrows="1" fold="1" page="1" pageScale="1" pageWidth="850" pageHeight="1100" math="0" shadow="0">
      <root>
        <mxCell id="0" />
        <mxCell id="1" parent="0" />
        <mxCell id="J-Q9EXGfS85i2teZ6ycE-10" style="rounded=0;orthogonalLoop=1;jettySize=auto;html=1;entryX=-0.022;entryY=0.246;entryDx=0;entryDy=0;strokeColor=default;align=center;verticalAlign=middle;fontFamily=Helvetica;fontSize=11;fontColor=default;labelBackgroundColor=default;endArrow=classic;endFill=1;shape=flexArrow;width=3.6666666666666665;endSize=2.72;endWidth=4.111111111111112;exitX=0.711;exitY=0.933;exitDx=0;exitDy=0;exitPerimeter=0;entryPerimeter=0;" edge="1" parent="1" target="J-Q9EXGfS85i2teZ6ycE-41" source="J-Q9EXGfS85i2teZ6ycE-1">
          <mxGeometry relative="1" as="geometry">
            <mxPoint x="306.63" y="80" as="sourcePoint" />
            <mxPoint x="252.66999999999996" y="124.32" as="targetPoint" />
          </mxGeometry>
        </mxCell>
        <mxCell id="J-Q9EXGfS85i2teZ6ycE-20" value="&lt;span style=&quot;font-family: &amp;quot;CaskaydiaCove Nerd Font&amp;quot;;&quot;&gt;&lt;font style=&quot;font-size: 8px;&quot;&gt;Build&lt;/font&gt;&lt;/span&gt;" style="edgeLabel;html=1;align=center;verticalAlign=middle;resizable=0;points=[];fontFamily=Helvetica;fontSize=11;fontColor=default;labelBackgroundColor=default;" vertex="1" connectable="0" parent="J-Q9EXGfS85i2teZ6ycE-10">
          <mxGeometry x="-0.104" y="3" relative="1" as="geometry">
            <mxPoint x="-3" as="offset" />
          </mxGeometry>
        </mxCell>
        <mxCell id="J-Q9EXGfS85i2teZ6ycE-9" style="rounded=0;orthogonalLoop=1;jettySize=auto;html=1;entryX=1;entryY=0;entryDx=0;entryDy=0;strokeColor=default;align=center;verticalAlign=middle;fontFamily=Helvetica;fontSize=11;fontColor=default;labelBackgroundColor=default;endArrow=classic;endFill=1;shape=flexArrow;width=3.6666666666666665;endSize=2.72;endWidth=4.111111111111112;exitX=0.211;exitY=0.933;exitDx=0;exitDy=0;exitPerimeter=0;" edge="1" parent="1" source="J-Q9EXGfS85i2teZ6ycE-1" target="J-Q9EXGfS85i2teZ6ycE-8">
          <mxGeometry relative="1" as="geometry" />
        </mxCell>
        <mxCell id="J-Q9EXGfS85i2teZ6ycE-19" value="&lt;font style=&quot;font-size: 8px;&quot; face=&quot;CaskaydiaCove Nerd Font&quot;&gt;Build&lt;/font&gt;" style="edgeLabel;html=1;align=center;verticalAlign=middle;resizable=0;points=[];fontFamily=Helvetica;fontSize=11;fontColor=default;labelBackgroundColor=default;" vertex="1" connectable="0" parent="J-Q9EXGfS85i2teZ6ycE-9">
          <mxGeometry x="-0.3136" relative="1" as="geometry">
            <mxPoint as="offset" />
          </mxGeometry>
        </mxCell>
        <mxCell id="J-Q9EXGfS85i2teZ6ycE-21" style="edgeStyle=orthogonalEdgeStyle;curved=1;rounded=0;orthogonalLoop=1;jettySize=auto;html=1;entryX=0.5;entryY=0;entryDx=0;entryDy=0;strokeColor=#82b366;align=center;verticalAlign=middle;fontFamily=Helvetica;fontSize=11;fontColor=default;labelBackgroundColor=default;startSize=6;endArrow=classic;endFill=1;endSize=3;fillColor=#d5e8d4;" edge="1" parent="1" source="J-Q9EXGfS85i2teZ6ycE-1" target="J-Q9EXGfS85i2teZ6ycE-8">
          <mxGeometry relative="1" as="geometry" />
        </mxCell>
        <mxCell id="J-Q9EXGfS85i2teZ6ycE-22" value="&lt;font face=&quot;CaskaydiaCove Nerd Font&quot; style=&quot;font-size: 8px;&quot;&gt;Response&lt;/font&gt;" style="edgeLabel;html=1;align=center;verticalAlign=middle;resizable=0;points=[];fontFamily=Helvetica;fontSize=11;fontColor=default;labelBackgroundColor=default;" vertex="1" connectable="0" parent="J-Q9EXGfS85i2teZ6ycE-21">
          <mxGeometry x="0.4386" y="4" relative="1" as="geometry">
            <mxPoint x="1" y="7" as="offset" />
          </mxGeometry>
        </mxCell>
        <mxCell id="J-Q9EXGfS85i2teZ6ycE-26" style="edgeStyle=orthogonalEdgeStyle;curved=1;rounded=0;orthogonalLoop=1;jettySize=auto;html=1;strokeColor=#b85450;align=center;verticalAlign=middle;fontFamily=Helvetica;fontSize=11;fontColor=default;labelBackgroundColor=default;startSize=6;endArrow=classic;endFill=1;endSize=3;fillColor=#f8cecc;entryX=0.5;entryY=0;entryDx=0;entryDy=0;entryPerimeter=0;" edge="1" parent="1" source="J-Q9EXGfS85i2teZ6ycE-1" target="J-Q9EXGfS85i2teZ6ycE-41">
          <mxGeometry relative="1" as="geometry">
            <mxPoint x="270" y="100" as="targetPoint" />
          </mxGeometry>
        </mxCell>
        <mxCell id="J-Q9EXGfS85i2teZ6ycE-27" value="&lt;font face=&quot;CaskaydiaCove Nerd Font&quot; style=&quot;font-size: 8px;&quot;&gt;Message&lt;/font&gt;" style="edgeLabel;html=1;align=center;verticalAlign=middle;resizable=0;points=[];fontFamily=Helvetica;fontSize=11;fontColor=default;labelBackgroundColor=default;" vertex="1" connectable="0" parent="J-Q9EXGfS85i2teZ6ycE-26">
          <mxGeometry x="0.2" y="-10" relative="1" as="geometry">
            <mxPoint x="-16" y="-7" as="offset" />
          </mxGeometry>
        </mxCell>
        <mxCell id="J-Q9EXGfS85i2teZ6ycE-1" value="&lt;font face=&quot;CaskaydiaCove Nerd Font&quot; style=&quot;font-size: 14px;&quot;&gt;Node&lt;/font&gt;" style="rounded=1;whiteSpace=wrap;html=1;" vertex="1" parent="1">
          <mxGeometry x="170" y="60" width="60" height="20" as="geometry" />
        </mxCell>
        <mxCell id="J-Q9EXGfS85i2teZ6ycE-14" style="edgeStyle=orthogonalEdgeStyle;curved=1;rounded=0;orthogonalLoop=1;jettySize=auto;html=1;entryX=0;entryY=1;entryDx=0;entryDy=0;strokeColor=#6c8ebf;align=center;verticalAlign=middle;fontFamily=Helvetica;fontSize=11;fontColor=default;labelBackgroundColor=default;startSize=6;endArrow=classic;endFill=1;endSize=3;fillColor=#dae8fc;" edge="1" parent="1" source="J-Q9EXGfS85i2teZ6ycE-2" target="J-Q9EXGfS85i2teZ6ycE-8">
          <mxGeometry relative="1" as="geometry" />
        </mxCell>
        <mxCell id="J-Q9EXGfS85i2teZ6ycE-17" value="&lt;font style=&quot;font-size: 8px;&quot; face=&quot;CaskaydiaCove Nerd Font&quot;&gt;Request&lt;/font&gt;" style="edgeLabel;html=1;align=center;verticalAlign=middle;resizable=0;points=[];fontFamily=Helvetica;fontSize=11;fontColor=default;labelBackgroundColor=default;" vertex="1" connectable="0" parent="J-Q9EXGfS85i2teZ6ycE-14">
          <mxGeometry x="-0.2045" y="-15" relative="1" as="geometry">
            <mxPoint x="-7" as="offset" />
          </mxGeometry>
        </mxCell>
        <mxCell id="J-Q9EXGfS85i2teZ6ycE-2" value="&lt;font face=&quot;CaskaydiaCove Nerd Font&quot; style=&quot;font-size: 14px;&quot;&gt;Node&lt;/font&gt;" style="rounded=1;whiteSpace=wrap;html=1;" vertex="1" parent="1">
          <mxGeometry x="170" y="200" width="60" height="20" as="geometry" />
        </mxCell>
        <mxCell id="J-Q9EXGfS85i2teZ6ycE-4" style="edgeStyle=orthogonalEdgeStyle;rounded=0;orthogonalLoop=1;jettySize=auto;html=1;entryX=0.5;entryY=0;entryDx=0;entryDy=0;curved=0;endArrow=classic;endFill=1;startSize=6;endSize=3;" edge="1" parent="1" source="J-Q9EXGfS85i2teZ6ycE-3" target="J-Q9EXGfS85i2teZ6ycE-1">
          <mxGeometry relative="1" as="geometry" />
        </mxCell>
        <mxCell id="J-Q9EXGfS85i2teZ6ycE-3" value="&lt;p style=&quot;line-height: 100%;&quot;&gt;&lt;font style=&quot;font-size: 9px;&quot; face=&quot;CaskaydiaCove Nerd Font&quot;&gt;rosrun &amp;lt;pkg_name&amp;gt; &amp;lt;node_name&amp;gt;&lt;/font&gt;&lt;/p&gt;" style="shape=hexagon;perimeter=hexagonPerimeter2;whiteSpace=wrap;html=1;fixedSize=1;rounded=0;shadow=0;" vertex="1" parent="1">
          <mxGeometry x="140" y="10" width="120" height="30" as="geometry" />
        </mxCell>
        <mxCell id="J-Q9EXGfS85i2teZ6ycE-16" style="edgeStyle=orthogonalEdgeStyle;curved=1;rounded=0;orthogonalLoop=1;jettySize=auto;html=1;entryX=0;entryY=0.5;entryDx=0;entryDy=0;strokeColor=#6c8ebf;align=center;verticalAlign=middle;fontFamily=Helvetica;fontSize=11;fontColor=default;labelBackgroundColor=default;startSize=6;endArrow=classic;endFill=1;endSize=3;exitX=0;exitY=0;exitDx=0;exitDy=0;fillColor=#dae8fc;" edge="1" parent="1" source="J-Q9EXGfS85i2teZ6ycE-8" target="J-Q9EXGfS85i2teZ6ycE-1">
          <mxGeometry relative="1" as="geometry">
            <Array as="points">
              <mxPoint x="100" y="70" />
            </Array>
          </mxGeometry>
        </mxCell>
        <mxCell id="J-Q9EXGfS85i2teZ6ycE-18" value="&lt;span style=&quot;font-family: &amp;quot;CaskaydiaCove Nerd Font&amp;quot;;&quot;&gt;&lt;font style=&quot;font-size: 8px;&quot;&gt;Request&lt;/font&gt;&lt;/span&gt;" style="edgeLabel;html=1;align=center;verticalAlign=middle;resizable=0;points=[];fontFamily=Helvetica;fontSize=11;fontColor=default;labelBackgroundColor=default;" vertex="1" connectable="0" parent="J-Q9EXGfS85i2teZ6ycE-16">
          <mxGeometry x="-0.5047" y="-6" relative="1" as="geometry">
            <mxPoint x="4" y="-4" as="offset" />
          </mxGeometry>
        </mxCell>
        <mxCell id="J-Q9EXGfS85i2teZ6ycE-24" style="edgeStyle=orthogonalEdgeStyle;curved=1;rounded=0;orthogonalLoop=1;jettySize=auto;html=1;entryX=0;entryY=0.25;entryDx=0;entryDy=0;strokeColor=#82b366;align=center;verticalAlign=middle;fontFamily=Helvetica;fontSize=11;fontColor=default;labelBackgroundColor=default;startSize=6;endArrow=classic;endFill=1;endSize=3;exitX=0.5;exitY=1;exitDx=0;exitDy=0;fillColor=#d5e8d4;" edge="1" parent="1" source="J-Q9EXGfS85i2teZ6ycE-8" target="J-Q9EXGfS85i2teZ6ycE-2">
          <mxGeometry relative="1" as="geometry" />
        </mxCell>
        <mxCell id="J-Q9EXGfS85i2teZ6ycE-8" value="&lt;span style=&quot;font-family: &amp;quot;CaskaydiaCove Nerd Font&amp;quot;; font-size: 14px;&quot;&gt;Service&lt;/span&gt;" style="ellipse;whiteSpace=wrap;html=1;fontFamily=Helvetica;fontSize=11;fontColor=default;labelBackgroundColor=none;" vertex="1" parent="1">
          <mxGeometry x="90" y="120" width="70" height="30" as="geometry" />
        </mxCell>
        <mxCell id="J-Q9EXGfS85i2teZ6ycE-25" value="&lt;font face=&quot;CaskaydiaCove Nerd Font&quot; style=&quot;font-size: 8px;&quot;&gt;Response&lt;/font&gt;" style="edgeLabel;html=1;align=center;verticalAlign=middle;resizable=0;points=[];fontFamily=Helvetica;fontSize=11;fontColor=default;labelBackgroundColor=default;" vertex="1" connectable="0" parent="1">
          <mxGeometry x="130" y="170.00333333333333" as="geometry" />
        </mxCell>
        <mxCell id="J-Q9EXGfS85i2teZ6ycE-32" value="&lt;font face=&quot;CaskaydiaCove Nerd Font&quot; style=&quot;font-size: 14px;&quot;&gt;Node&lt;/font&gt;" style="rounded=1;whiteSpace=wrap;html=1;" vertex="1" parent="1">
          <mxGeometry x="320" y="60" width="60" height="20" as="geometry" />
        </mxCell>
        <mxCell id="J-Q9EXGfS85i2teZ6ycE-33" style="edgeStyle=orthogonalEdgeStyle;curved=1;rounded=0;orthogonalLoop=1;jettySize=auto;html=1;strokeColor=#b85450;align=center;verticalAlign=middle;fontFamily=Helvetica;fontSize=11;fontColor=default;labelBackgroundColor=default;startSize=6;endArrow=classic;endFill=1;endSize=3;fillColor=#f8cecc;exitX=0;exitY=0.5;exitDx=0;exitDy=0;entryX=0.5;entryY=0;entryDx=0;entryDy=0;entryPerimeter=0;" edge="1" parent="1" source="J-Q9EXGfS85i2teZ6ycE-32" target="J-Q9EXGfS85i2teZ6ycE-41">
          <mxGeometry relative="1" as="geometry">
            <mxPoint x="310" y="70" as="sourcePoint" />
            <mxPoint x="280" y="100" as="targetPoint" />
          </mxGeometry>
        </mxCell>
        <mxCell id="J-Q9EXGfS85i2teZ6ycE-34" value="&lt;font face=&quot;CaskaydiaCove Nerd Font&quot; style=&quot;font-size: 8px;&quot;&gt;Message&lt;/font&gt;" style="edgeLabel;html=1;align=center;verticalAlign=middle;resizable=0;points=[];fontFamily=Helvetica;fontSize=11;fontColor=default;labelBackgroundColor=default;" vertex="1" connectable="0" parent="J-Q9EXGfS85i2teZ6ycE-33">
          <mxGeometry x="0.2" y="-10" relative="1" as="geometry">
            <mxPoint x="34" y="-8" as="offset" />
          </mxGeometry>
        </mxCell>
        <mxCell id="J-Q9EXGfS85i2teZ6ycE-35" value="&lt;font face=&quot;CaskaydiaCove Nerd Font&quot; style=&quot;font-size: 14px;&quot;&gt;Node&lt;/font&gt;" style="rounded=1;whiteSpace=wrap;html=1;" vertex="1" parent="1">
          <mxGeometry x="330" y="200" width="60" height="20" as="geometry" />
        </mxCell>
        <mxCell id="J-Q9EXGfS85i2teZ6ycE-36" style="edgeStyle=orthogonalEdgeStyle;curved=1;rounded=0;orthogonalLoop=1;jettySize=auto;html=1;strokeColor=#b85450;align=center;verticalAlign=middle;fontFamily=Helvetica;fontSize=11;fontColor=default;labelBackgroundColor=default;startSize=3;endArrow=none;endFill=0;endSize=3;fillColor=#f8cecc;startArrow=classic;startFill=1;exitX=0.5;exitY=0;exitDx=0;exitDy=0;entryX=0.5;entryY=1;entryDx=0;entryDy=0;entryPerimeter=0;exitPerimeter=0;" edge="1" parent="1" source="J-Q9EXGfS85i2teZ6ycE-47" target="J-Q9EXGfS85i2teZ6ycE-41">
          <mxGeometry relative="1" as="geometry">
            <mxPoint x="240" y="220" as="sourcePoint" />
            <mxPoint x="280" y="180" as="targetPoint" />
          </mxGeometry>
        </mxCell>
        <mxCell id="J-Q9EXGfS85i2teZ6ycE-37" value="&lt;font face=&quot;CaskaydiaCove Nerd Font&quot; style=&quot;font-size: 8px;&quot;&gt;Message&lt;/font&gt;" style="edgeLabel;html=1;align=center;verticalAlign=middle;resizable=0;points=[];fontFamily=Helvetica;fontSize=11;fontColor=default;labelBackgroundColor=default;" vertex="1" connectable="0" parent="1">
          <mxGeometry x="300" y="190" as="geometry" />
        </mxCell>
        <mxCell id="J-Q9EXGfS85i2teZ6ycE-39" value="&lt;font style=&quot;font-size: 8px;&quot; face=&quot;CaskaydiaCove Nerd Font&quot;&gt;Sync&lt;/font&gt;" style="text;html=1;align=center;verticalAlign=middle;whiteSpace=wrap;rounded=0;fontFamily=Helvetica;fontSize=11;fontColor=default;labelBackgroundColor=default;" vertex="1" parent="1">
          <mxGeometry x="140" y="142" width="20" height="10" as="geometry" />
        </mxCell>
        <mxCell id="J-Q9EXGfS85i2teZ6ycE-46" value="" style="group" vertex="1" connectable="0" parent="1">
          <mxGeometry x="256" y="112" width="40" height="56" as="geometry" />
        </mxCell>
        <mxCell id="J-Q9EXGfS85i2teZ6ycE-41" value="&lt;font face=&quot;CaskaydiaCove Nerd Font&quot; style=&quot;font-size: 8px;&quot;&gt;Queue&lt;/font&gt;" style="strokeWidth=1;html=1;shape=mxgraph.flowchart.database;whiteSpace=wrap;fontFamily=Helvetica;fontSize=11;fontColor=default;labelBackgroundColor=default;" vertex="1" parent="J-Q9EXGfS85i2teZ6ycE-46">
          <mxGeometry width="40" height="56" as="geometry" />
        </mxCell>
        <mxCell id="J-Q9EXGfS85i2teZ6ycE-45" value="&lt;span style=&quot;font-family: &amp;quot;CaskaydiaCove Nerd Font&amp;quot;;&quot;&gt;&lt;font style=&quot;font-size: 10px;&quot;&gt;Topic&lt;/font&gt;&lt;/span&gt;" style="text;html=1;align=center;verticalAlign=middle;whiteSpace=wrap;rounded=0;fontFamily=Helvetica;fontSize=11;fontColor=default;labelBackgroundColor=none;" vertex="1" parent="J-Q9EXGfS85i2teZ6ycE-46">
          <mxGeometry x="10" y="4" width="20" height="10" as="geometry" />
        </mxCell>
        <mxCell id="J-Q9EXGfS85i2teZ6ycE-38" value="&lt;font style=&quot;font-size: 8px;&quot; face=&quot;CaskaydiaCove Nerd Font&quot;&gt;Async&lt;/font&gt;" style="text;html=1;align=center;verticalAlign=middle;whiteSpace=wrap;rounded=0;fontFamily=Helvetica;fontSize=11;fontColor=default;labelBackgroundColor=default;" vertex="1" parent="J-Q9EXGfS85i2teZ6ycE-46">
          <mxGeometry x="10" y="38" width="20" height="10" as="geometry" />
        </mxCell>
        <mxCell id="J-Q9EXGfS85i2teZ6ycE-48" style="edgeStyle=orthogonalEdgeStyle;curved=1;rounded=0;orthogonalLoop=1;jettySize=auto;html=1;entryX=0.5;entryY=1;entryDx=0;entryDy=0;strokeColor=#b85450;align=center;verticalAlign=middle;fontFamily=Helvetica;fontSize=11;fontColor=default;labelBackgroundColor=default;startSize=6;endArrow=classic;endFill=1;endSize=3;fillColor=#f8cecc;" edge="1" parent="1" source="J-Q9EXGfS85i2teZ6ycE-47" target="J-Q9EXGfS85i2teZ6ycE-35">
          <mxGeometry relative="1" as="geometry">
            <Array as="points">
              <mxPoint x="311" y="260" />
              <mxPoint x="360" y="260" />
            </Array>
          </mxGeometry>
        </mxCell>
        <mxCell id="J-Q9EXGfS85i2teZ6ycE-47" value="&lt;font style=&quot;font-size: 8px;&quot; face=&quot;CaskaydiaCove Nerd Font&quot;&gt;Queue&lt;/font&gt;" style="strokeWidth=1;html=1;shape=mxgraph.flowchart.database;whiteSpace=wrap;fontFamily=Helvetica;fontSize=11;labelBackgroundColor=none;fillColor=#f8cecc;strokeColor=#b85450;" vertex="1" parent="1">
          <mxGeometry x="296" y="212" width="30" height="36" as="geometry" />
        </mxCell>
        <mxCell id="J-Q9EXGfS85i2teZ6ycE-50" style="edgeStyle=orthogonalEdgeStyle;curved=1;rounded=0;orthogonalLoop=1;jettySize=auto;html=1;strokeColor=#b85450;align=center;verticalAlign=middle;fontFamily=Helvetica;fontSize=11;fontColor=default;labelBackgroundColor=default;startSize=3;endArrow=none;endFill=0;endSize=3;fillColor=#f8cecc;startArrow=classic;startFill=1;exitX=0.5;exitY=0;exitDx=0;exitDy=0;entryX=0.5;entryY=1;entryDx=0;entryDy=0;entryPerimeter=0;exitPerimeter=0;" edge="1" parent="1" source="J-Q9EXGfS85i2teZ6ycE-53" target="J-Q9EXGfS85i2teZ6ycE-41">
          <mxGeometry relative="1" as="geometry">
            <mxPoint x="180" y="220" as="sourcePoint" />
            <mxPoint x="216" y="168" as="targetPoint" />
          </mxGeometry>
        </mxCell>
        <mxCell id="J-Q9EXGfS85i2teZ6ycE-51" value="&lt;font face=&quot;CaskaydiaCove Nerd Font&quot; style=&quot;font-size: 8px;&quot;&gt;Message&lt;/font&gt;" style="edgeLabel;html=1;align=center;verticalAlign=middle;resizable=0;points=[];fontFamily=Helvetica;fontSize=11;fontColor=default;labelBackgroundColor=default;" vertex="1" connectable="0" parent="1">
          <mxGeometry x="256" y="190" as="geometry" />
        </mxCell>
        <mxCell id="J-Q9EXGfS85i2teZ6ycE-52" style="edgeStyle=orthogonalEdgeStyle;curved=1;rounded=0;orthogonalLoop=1;jettySize=auto;html=1;entryX=0.5;entryY=1;entryDx=0;entryDy=0;strokeColor=#b85450;align=center;verticalAlign=middle;fontFamily=Helvetica;fontSize=11;fontColor=default;labelBackgroundColor=default;startSize=6;endArrow=classic;endFill=1;endSize=3;fillColor=#f8cecc;" edge="1" parent="1" source="J-Q9EXGfS85i2teZ6ycE-53" target="J-Q9EXGfS85i2teZ6ycE-2">
          <mxGeometry relative="1" as="geometry">
            <mxPoint x="310" y="210" as="targetPoint" />
            <Array as="points">
              <mxPoint x="251" y="260" />
              <mxPoint x="200" y="260" />
            </Array>
          </mxGeometry>
        </mxCell>
        <mxCell id="J-Q9EXGfS85i2teZ6ycE-53" value="&lt;font style=&quot;font-size: 8px;&quot; face=&quot;CaskaydiaCove Nerd Font&quot;&gt;Queue&lt;/font&gt;" style="strokeWidth=1;html=1;shape=mxgraph.flowchart.database;whiteSpace=wrap;fontFamily=Helvetica;fontSize=11;labelBackgroundColor=none;fillColor=#f8cecc;strokeColor=#b85450;" vertex="1" parent="1">
          <mxGeometry x="236" y="212" width="30" height="36" as="geometry" />
        </mxCell>
        <mxCell id="J-Q9EXGfS85i2teZ6ycE-54" value="&lt;font face=&quot;CaskaydiaCove Nerd Font&quot; style=&quot;font-size: 14px;&quot;&gt;Master&lt;/font&gt;" style="rounded=1;whiteSpace=wrap;html=1;" vertex="1" parent="1">
          <mxGeometry x="410" y="117" width="80" height="25" as="geometry" />
        </mxCell>
        <mxCell id="J-Q9EXGfS85i2teZ6ycE-57" style="edgeStyle=orthogonalEdgeStyle;curved=0;rounded=0;orthogonalLoop=1;jettySize=auto;html=1;entryX=0.5;entryY=0;entryDx=0;entryDy=0;strokeColor=default;align=center;verticalAlign=middle;fontFamily=Helvetica;fontSize=11;fontColor=default;labelBackgroundColor=default;startSize=6;endArrow=classic;endFill=1;endSize=3;" edge="1" parent="1" source="J-Q9EXGfS85i2teZ6ycE-55" target="J-Q9EXGfS85i2teZ6ycE-54">
          <mxGeometry relative="1" as="geometry" />
        </mxCell>
        <mxCell id="J-Q9EXGfS85i2teZ6ycE-55" value="&lt;p style=&quot;line-height: 100%;&quot;&gt;&lt;font style=&quot;font-size: 9px;&quot; face=&quot;CaskaydiaCove Nerd Font&quot;&gt;roscore&lt;/font&gt;&lt;/p&gt;" style="shape=hexagon;perimeter=hexagonPerimeter2;whiteSpace=wrap;html=1;fixedSize=1;spacing=0;verticalAlign=middle;spacingTop=-3;" vertex="1" parent="1">
          <mxGeometry x="410" y="70" width="80" height="25" as="geometry" />
        </mxCell>
        <mxCell id="J-Q9EXGfS85i2teZ6ycE-58" value="&lt;p style=&quot;line-height: 80%;&quot;&gt;&lt;font face=&quot;CaskaydiaCove Nerd Font&quot;&gt;&lt;span style=&quot;font-size: 8px;&quot;&gt;Manage Connection&lt;/span&gt;&lt;/font&gt;&lt;/p&gt;" style="text;html=1;align=center;verticalAlign=middle;whiteSpace=wrap;rounded=0;fontFamily=Helvetica;fontSize=11;fontColor=default;labelBackgroundColor=none;shadow=0;spacing=0;" vertex="1" parent="1">
          <mxGeometry x="480" y="133" width="60" height="20" as="geometry" />
        </mxCell>
        <mxCell id="J-Q9EXGfS85i2teZ6ycE-59" style="rounded=0;orthogonalLoop=1;jettySize=auto;html=1;strokeColor=default;align=center;verticalAlign=middle;fontFamily=Helvetica;fontSize=11;fontColor=default;labelBackgroundColor=default;endArrow=classic;endFill=1;shape=flexArrow;width=3.6666666666666665;endSize=2.72;endWidth=4.111111111111112;" edge="1" parent="1" source="J-Q9EXGfS85i2teZ6ycE-54">
          <mxGeometry relative="1" as="geometry">
            <mxPoint x="429" y="158" as="sourcePoint" />
            <mxPoint x="450" y="185" as="targetPoint" />
          </mxGeometry>
        </mxCell>
        <mxCell id="J-Q9EXGfS85i2teZ6ycE-60" value="&lt;span style=&quot;font-family: &amp;quot;CaskaydiaCove Nerd Font&amp;quot;;&quot;&gt;&lt;font style=&quot;font-size: 8px;&quot;&gt;Build&lt;/font&gt;&lt;/span&gt;" style="edgeLabel;html=1;align=center;verticalAlign=middle;resizable=0;points=[];fontFamily=Helvetica;fontSize=11;fontColor=default;labelBackgroundColor=default;" vertex="1" connectable="0" parent="J-Q9EXGfS85i2teZ6ycE-59">
          <mxGeometry x="-0.104" y="3" relative="1" as="geometry">
            <mxPoint x="-3" as="offset" />
          </mxGeometry>
        </mxCell>
        <mxCell id="J-Q9EXGfS85i2teZ6ycE-61" value="&lt;span style=&quot;font-family: &amp;quot;CaskaydiaCove Nerd Font&amp;quot;;&quot;&gt;&lt;font style=&quot;font-size: 10px;&quot;&gt;/rosout&lt;/font&gt;&lt;/span&gt;" style="ellipse;whiteSpace=wrap;html=1;fontFamily=Helvetica;fontSize=11;fontColor=default;labelBackgroundColor=none;" vertex="1" parent="1">
          <mxGeometry x="420" y="185" width="60" height="20" as="geometry" />
        </mxCell>
        <mxCell id="J-Q9EXGfS85i2teZ6ycE-62" value="&lt;p style=&quot;line-height: 80%;&quot;&gt;&lt;font face=&quot;CaskaydiaCove Nerd Font&quot;&gt;&lt;span style=&quot;font-size: 8px;&quot;&gt;Manage Logging&lt;/span&gt;&lt;/font&gt;&lt;/p&gt;" style="text;html=1;align=center;verticalAlign=middle;whiteSpace=wrap;rounded=0;fontFamily=Helvetica;fontSize=11;fontColor=default;labelBackgroundColor=none;shadow=0;spacing=0;" vertex="1" parent="1">
          <mxGeometry x="470" y="190" width="60" height="20" as="geometry" />
        </mxCell>
      </root>
    </mxGraphModel>
  </diagram>
</mxfile>
